REM DIRINDEX 1\4,1\2\5,1\2\6,1\2\7,1\3\8,1\3\9,1\3\10,1\3\11
REM DIRNAME folder01,folder02,folder03,folder04,folder05,folder06,folder07,folder08,folder09,folder10,folder11
TITLE ""
FILE "t_k_144-156.mp3" MP3
  TRACK 01 AUDIO
    TITLE "5:cjc108_0432"
    INDEX 01 00:00:00
  TRACK 02 AUDIO
    TITLE "0:"
    INDEX 01 00:01:13
  TRACK 03 AUDIO
    TITLE "6:cjc108_0433"
    INDEX 01 00:01:26
  TRACK 04 AUDIO
    TITLE "0:"
    INDEX 01 00:05:28
  TRACK 05 AUDIO
    TITLE "7:cjc108_0434"
    INDEX 01 00:05:42
  TRACK 06 AUDIO
    TITLE "0:"
    INDEX 01 00:12:34
  TRACK 07 AUDIO
    TITLE "5:cjc108_0435"
    INDEX 01 00:13:33
  TRACK 08 AUDIO
    TITLE "0:"
    INDEX 01 00:14:58
  TRACK 09 AUDIO
    TITLE "6:cjc108_0436"
    INDEX 01 00:14:62
  TRACK 10 AUDIO
    TITLE "0:"
    INDEX 01 00:17:25
  TRACK 11 AUDIO
    TITLE "7:cjc108_0437"
    INDEX 01 00:17:47
  TRACK 12 AUDIO
    TITLE "0:"
    INDEX 01 00:24:59
  TRACK 13 AUDIO
    TITLE "5:cjc108_0438"
    INDEX 01 00:25:37
  TRACK 14 AUDIO
    TITLE "0:"
    INDEX 01 00:26:64
  TRACK 15 AUDIO
    TITLE "6:cjc108_0439"
    INDEX 01 00:27:00
  TRACK 16 AUDIO
    TITLE "0:"
    INDEX 01 00:29:19
  TRACK 17 AUDIO
    TITLE "7:cjc108_0440"
    INDEX 01 00:29:42
  TRACK 18 AUDIO
    TITLE "0:"
    INDEX 01 00:34:22
  TRACK 19 AUDIO
    TITLE "5:cjc108_0441"
    INDEX 01 00:35:06
  TRACK 20 AUDIO
    TITLE "0:"
    INDEX 01 00:36:23
  TRACK 21 AUDIO
    TITLE "6:cjc108_0442"
    INDEX 01 00:36:38
  TRACK 22 AUDIO
    TITLE "0:"
    INDEX 01 00:39:58
  TRACK 23 AUDIO
    TITLE "7:cjc108_0443"
    INDEX 01 00:39:74
  TRACK 24 AUDIO
    TITLE "0:"
    INDEX 01 00:45:04
  TRACK 25 AUDIO
    TITLE "5:cjc108_0444"
    INDEX 01 00:45:67
  TRACK 26 AUDIO
    TITLE "0:"
    INDEX 01 00:47:07
  TRACK 27 AUDIO
    TITLE "6:cjc108_0445"
    INDEX 01 00:47:25
  TRACK 28 AUDIO
    TITLE "0:"
    INDEX 01 00:49:70
  TRACK 29 AUDIO
    TITLE "7:cjc108_0446"
    INDEX 01 00:50:17
  TRACK 30 AUDIO
    TITLE "0:"
    INDEX 01 00:55:14
  TRACK 31 AUDIO
    TITLE "5:cjc108_0447"
    INDEX 01 00:56:06
  TRACK 32 AUDIO
    TITLE "0:"
    INDEX 01 00:57:25
  TRACK 33 AUDIO
    TITLE "6:cjc108_0448"
    INDEX 01 00:57:41
  TRACK 34 AUDIO
    TITLE "0:"
    INDEX 01 00:58:67
  TRACK 35 AUDIO
    TITLE "7:cjc108_0449"
    INDEX 01 00:59:02
  TRACK 36 AUDIO
    TITLE "0:"
    INDEX 01 01:05:73
  TRACK 37 AUDIO
    TITLE "5:cjc108_0450"
    INDEX 01 01:06:69
  TRACK 38 AUDIO
    TITLE "0:"
    INDEX 01 01:08:07
  TRACK 39 AUDIO
    TITLE "6:cjc108_0451"
    INDEX 01 01:08:31
  TRACK 40 AUDIO
    TITLE "0:"
    INDEX 01 01:11:13
  TRACK 41 AUDIO
    TITLE "7:cjc108_0452"
    INDEX 01 01:11:25
  TRACK 42 AUDIO
    TITLE "0:"
    INDEX 01 01:16:32
  TRACK 43 AUDIO
    TITLE "5:cjc108_0453"
    INDEX 01 01:17:16
  TRACK 44 AUDIO
    TITLE "0:"
    INDEX 01 01:18:41
  TRACK 45 AUDIO
    TITLE "6:cjc108_0454"
    INDEX 01 01:18:47
  TRACK 46 AUDIO
    TITLE "0:"
    INDEX 01 01:19:58
  TRACK 47 AUDIO
    TITLE "7:cjc108_0455"
    INDEX 01 01:19:70
  TRACK 48 AUDIO
    TITLE "0:"
    INDEX 01 01:24:43
  TRACK 49 AUDIO
    TITLE "5:cjc108_0456"
    INDEX 01 01:25:37
  TRACK 50 AUDIO
    TITLE "0:"
    INDEX 01 01:26:58
  TRACK 51 AUDIO
    TITLE "6:cjc108_0457"
    INDEX 01 01:27:06
  TRACK 52 AUDIO
    TITLE "0:"
    INDEX 01 01:28:25
  TRACK 53 AUDIO
    TITLE "7:cjc108_0458"
    INDEX 01 01:28:41
  TRACK 54 AUDIO
    TITLE "0:"
    INDEX 01 01:35:31
  TRACK 55 AUDIO
    TITLE "5:cjc108_0459"
    INDEX 01 01:36:17
  TRACK 56 AUDIO
    TITLE "0:"
    INDEX 01 01:37:34
  TRACK 57 AUDIO
    TITLE "6:cjc108_0460"
    INDEX 01 01:37:44
  TRACK 58 AUDIO
    TITLE "0:"
    INDEX 01 01:39:68
  TRACK 59 AUDIO
    TITLE "7:cjc108_0461"
    INDEX 01 01:40:07
  TRACK 60 AUDIO
    TITLE "0:"
    INDEX 01 01:45:34
  TRACK 61 AUDIO
    TITLE "5:cjc108_0462"
    INDEX 01 01:46:16
  TRACK 62 AUDIO
    TITLE "0:"
    INDEX 01 01:47:40
  TRACK 63 AUDIO
    TITLE "6:cjc108_0463"
    INDEX 01 01:47:48
  TRACK 64 AUDIO
    TITLE "0:"
    INDEX 01 01:50:07
  TRACK 65 AUDIO
    TITLE "7:cjc108_0464"
    INDEX 01 01:50:31
  TRACK 66 AUDIO
    TITLE "0:"
    INDEX 01 01:56:73
  TRACK 67 AUDIO
    TITLE "5:cjc108_0465"
    INDEX 01 01:57:45
  TRACK 68 AUDIO
    TITLE "0:"
    INDEX 01 01:58:62
  TRACK 69 AUDIO
    TITLE "6:cjc108_0466"
    INDEX 01 01:59:03
  TRACK 70 AUDIO
    TITLE "0:"
    INDEX 01 02:00:53
  TRACK 71 AUDIO
    TITLE "7:cjc108_0467"
    INDEX 01 02:01:01
  TRACK 72 AUDIO
    TITLE "0:"
    INDEX 01 02:06:32
  TRACK 73 AUDIO
    TITLE "5:cjc108_0468"
    INDEX 01 02:07:14
  TRACK 74 AUDIO
    TITLE "0:"
    INDEX 01 02:08:35
  TRACK 75 AUDIO
    TITLE "6:cjc108_0469"
    INDEX 01 02:08:43
  TRACK 76 AUDIO
    TITLE "0:"
    INDEX 01 02:11:19
  TRACK 77 AUDIO
    TITLE "7:cjc108_0470"
    INDEX 01 02:11:27
  TRACK 78 AUDIO
    TITLE "0:"
    INDEX 01 02:17:67
